<?xml version="1.0" encoding="utf-8"?>
<!-- Generator: Adobe Illustrator 27.9.0, SVG Export Plug-In . SVG Version: 6.00 Build 0)  -->
<svg version="1.1" id="Layer_1" xmlns="http://www.w3.org/2000/svg" xmlns:xlink="http://www.w3.org/1999/xlink" x="0px" y="0px"
	 viewBox="0 0 1080 769.85" style="enable-background:new 0 0 1080 769.85;" xml:space="preserve">
<style type="text/css">
	.st0{fill:#FFFFFF;}
</style>
<path class="st0" d="M0,376.45c4.34-17.83,15.9-30.68,28.52-43.25c104.33-103.98,208.49-208.12,312.52-312.4
	c17.29-17.33,36.75-25.63,60.92-17.88c36.83,11.81,50.2,56.43,26.07,86.55c-3.29,4.1-6.98,7.9-10.71,11.62
	c-72.68,72.49-145.38,144.96-218.17,217.33c-2.96,2.94-6.9,4.89-10.38,7.3c0.71,1.37,1.42,2.74,2.12,4.12c4.28,0,8.55,0,12.83,0
	c271.04,0,542.07,0.07,813.11-0.14c19.64-0.02,37.05,3.91,49.86,19.8c14.28,17.74,17.27,37.67,7.99,58.32
	c-8.94,19.9-25.28,30.44-47.21,31.8c-4.91,0.3-9.84,0.18-14.76,0.18c-269.63,0.01-539.26,0.01-808.89,0.01c-4.13,0-8.26,0-15.09,0
	c4.27,4.61,6.87,7.6,9.66,10.4c73.8,73.86,147.65,147.66,221.41,221.55c21.43,21.47,26.25,45.69,14.05,68.75
	c-15.6,29.51-54.66,38.61-81.52,18.81c-4.78-3.52-9.14-7.7-13.36-11.91C236.78,645.29,134.68,543.06,32.35,441.06
	C18.86,427.61,5.69,414.26,0,395.43C0,389.1,0,382.77,0,376.45z"/>
</svg>
