<svg id="Gruppe_2" data-name="Gruppe 2" xmlns="http://www.w3.org/2000/svg" xmlns:xlink="http://www.w3.org/1999/xlink" width="609.877" height="253.217" viewBox="0 0 609.877 253.217">
  <defs>
    <clipPath id="clip-path">
      <rect id="Rechteck_6" data-name="Rechteck 6" width="609.877" height="253.217" fill="#fff"/>
    </clipPath>
  </defs>
  <g id="Gruppe_1" data-name="Gruppe 1" clip-path="url(#clip-path)">
    <path id="Pfad_1" data-name="Pfad 1" d="M11.964,27.914C6.48,27.914,0,27.166,0,23.926,0,1,40.376,0,57.572,0,80,0,108.664,6.978,133.089,15.7c37.135,13.459,112.4,58.321,112.4,109.662,0,45.36-48.85,67.044-94.209,67.044-11.465,0-25.173-1.994-36.388-3.739-.748,2.742-1.246,4.735-2.991,10.468a49.169,49.169,0,0,1-8.723,1l-5.733-.5c-3.739-4.486-4.984-11.715-6.48-19.441-22.68-13.209-37.384-24.425-44.114-32.151-5.733-5.982-12.213-13.957-12.213-21.683,0-3.987,2.493-7.476,8.225-11.464,11.714-8.724,26.667-13.459,51.092-17.7l.5-10.218c.249-2.493,2.741-29.161,8.473-34.146,9.222,7.477,10.219,15.2,10.966,26.667.25,4.985.5,10.219,1.246,15.7h3.49c17.445,0,70.781,4.486,70.781,29.658,0,5.982-8.723,17.2-17.2,17.2-2.991,0-8.474-1.246-10.967-3.239,3.738-4.238,9.222-7.975,10.717-11.215-4.984-5.983-31.9-12.96-51.591-12.96a46.373,46.373,0,0,0-6.48.249l.25,54.58c7.975,4.986,17.7,5.485,23.926,5.485,27.415,0,84.24-4.736,84.24-49.1,0-43.865-56.076-77.76-97.947-93.711C94.957,20.935,67.043,15.2,34.394,15.2a81.527,81.527,0,0,0-20.437,2.244c-4.237,1-5.732,1.994-5.732,2.991,0,1.744,8.474,2.742,9.471,3.241a2.541,2.541,0,0,1,1.246,1.993,2.984,2.984,0,0,1-1,1.994c-1,0-3.239.25-5.981.25m81,87.48c-24.674,1.994-52.089,4.486-52.089,13.209,0,6.73,11.464,14.954,18.443,20.187a79.948,79.948,0,0,0,31.4,14.954Z" transform="translate(0 0)" fill="#fff"/>
    <path id="Pfad_2" data-name="Pfad 2" d="M415.966,35.056c4.237,0,13.957,4.238,13.957,13.459,0,19.192-32.9,41.123-49.348,41.123a54.35,54.35,0,0,1-15.7-2.242c-2.742,3.239-3.739,5.981-7.477,6.479-2.493-.5-5.733-5.234-6.231-10.717a25.166,25.166,0,0,1,.748-4.237c-3.739-4.984-6.48-9.471-6.48-14.954,0-16.449,24.674-38.381,48.351-38.381,10.966,0,19.689,4.236,21.184,9.72.25,0,.5-.25,1-.25m-57.323,29.41a1.9,1.9,0,0,0,1.246-.5c3.24-4.486,13.708-14.456,19.44-19.938V43.78a1.609,1.609,0,0,0-.5-1.246c-12.461,2.491-20.188,11.713-21.185,21.433a1.292,1.292,0,0,0,1,.5M382.32,118.8c.5,20.187,2.493,41.37,2.493,61.309,0,3.989-1.5,8.723-7.726,8.723a23.357,23.357,0,0,1-6.979-1.5c-3.24-1-4.735-10.718-4.985-13.21,0-12.71.25-12.96.748-26.169.249-3.488,1-17.2,4.237-42.369.249-1.245.5-1.743,1.495-1.743,8.972.248,10.219,5.482,10.717,14.954m-7.726-43.865h5.483c12.462,0,37.884-8.475,37.884-23.677,0-3.489,0-6.231-6.48-6.231-14.455,0-28.662,13.957-38.88,27.914,0,.5,1.247,1.994,1.994,1.994" transform="translate(-109.904 -8.141)" fill="#fff"/>
    <path id="Pfad_3" data-name="Pfad 3" d="M434.557,162.942a.535.535,0,0,0,.5.5,76.08,76.08,0,0,0,25.671,5.234c16.947,1.246,42.119,1.495,42.119,24.923,0,26.917-29.908,28.411-37.882,28.411-21.185,0-39.877-13.457-39.877-23.677,0-12.212,12.711-15.452,22.68-15.452a74.949,74.949,0,0,1,32.151,7.726,1.3,1.3,0,0,1,.5,1,2.107,2.107,0,0,1-.5,1.5c-1.994,1.994-7.975,4.985-14.207,4.985-7.228,0-17.2-5.982-26.916-5.982-3.49,0-7.726.748-7.726,6.23,0,6.231,11.215,6.231,20.187,6.231,4.735,0,39.129-3.987,39.129-13.209,0-8.723-26.169-12.462-36.885-12.711-28.661-.747-32.4-3.738-32.4-14.206,0-23.427,47.354-25.172,49.6-25.172a135.6,135.6,0,0,1,31.9,4.237c1.744.25,2.741,1,2.741,3.739-.248,2.991-2.741,4.735-5.482,5.732-1.994.5-6.231,1.246-8.225,1.5-8.723,1.246-34.393,2.243-42.369,3.738-8.224,1.247-11.713,2.244-14.206,3.739a1.89,1.89,0,0,0-.5,1" transform="translate(-133.978 -44.309)" fill="#fff"/>
    <path id="Pfad_4" data-name="Pfad 4" d="M598.15,125.857c0-1.994.249-5.234,2.493-5.234,6.978,0,26.917,24.674,26.917,59.316,0,15.2-6.979,33.4-19.19,33.4-14.456,0-29.66-46.357-33.149-46.357-.5,0-1.246.747-1.744,2.741-.748,2.991-1.246,29.16-2.493,36.887-.746,3.489-1.994,11.713-7.476,11.713-7.975,0-9.72-13.708-9.72-19.69,0-12.959,6.479-58.818,17.2-58.818,7.478,0,22.432,31.155,35.64,47.6,1,1,1.5,1.994,1.745,1.994,1.5,0,1.5-2.243,1.5-6.479,0-22.931-4.736-29.659-10.967-53.087l-.747-2.991Z" transform="translate(-176.195 -38.378)" fill="#fff"/>
    <path id="Pfad_5" data-name="Pfad 5" d="M731.267,213c-6.73,5.233-21.932,16.948-38.382,16.948-13.708,0-19.938-10.219-19.938-20.936,0-5.732,3.49-13.458,6.231-21.184-.747-2.493-1.994-3.988-1.994-6.481,0-1.994.748-2.991,1.246-4.984a27.9,27.9,0,0,1,6.48-1.994l5.98-13.708c-5.731-2.742-14.205-5.982-14.205-11.216,0-2.741,2.243-3.489,6.479-3.738,10.468-.5,22.68-4.985,43.117-4.985a35.168,35.168,0,0,1,10.219,1.745c2.241,2.742,7.974,7.975,7.974,12.212,0,2.491-8.723,5.234-13.459,5.483-10.716.747-13.209.5-19.938.747a18.85,18.85,0,0,0-3.739.25c-1,1-2.991,4.236-2.991,10.467a2.265,2.265,0,0,0,2.244,2.492h18.442l3.489.5c1.247,1.745,1.5,4.986,1.5,7.227,0,2-.5,5.733-2.741,5.983-4.487.248-15.7.747-28.163.747-.5,0-1,0-1.5,1a96.383,96.383,0,0,1-5.981,16.7c1.246,0,10.716-2.492,26.667-3.989,2.492-.249,5.733-.5,8.224-.5,2.991,0,6.231,4.237,6.231,7.477,0,1.5-.25,2.991-1.5,3.739" transform="translate(-214.107 -44.774)" fill="#fff"/>
    <path id="Pfad_6" data-name="Pfad 6" d="M772.259,296.829c-9.969-1-16.7-9.221-16.7-19.939,0-4.735,3.987-31.652,17.944-65.048-2.741-5.982-4.486-12.212-4.486-18.194,0-25.671,24.923-56.077,29.908-56.575,3.489.5,3.987,2.492,3.987,6.979,0,4.985-2.99,8.224-10.716,19.939-3.988,6.231-9.721,16.449-9.721,25.42,0,1,0,2.493.747,2.991h.5c.25,0,.5-.249,1-1,11.964-15.951,36.637-45.858,49.348-45.858,12.96,0,16.2,20.936,16.2,30.9,0,29.409-36.886,50.345-53.585,50.345a44.557,44.557,0,0,0-5.482.5c-9.721,28.411-11.465,40.625-18.195,67.541ZM828.087,193.9c6.979-5.982,10.716-14.206,10.716-24.425,0-2.741,0-6.977-3.239-6.977-4.236,0-13.708,11.215-17.447,15.951-2.74,3.736-12.71,22.679-14.455,26.916,8.474-1,16.7-4.735,24.425-11.464" transform="translate(-240.391 -43.611)" fill="#fff"/>
    <path id="Pfad_7" data-name="Pfad 7" d="M505.246,83.135H495.22V52.165h10.343a15.6,15.6,0,0,1,7.819,1.853,12.358,12.358,0,0,1,5.013,5.307,18.167,18.167,0,0,1,1.746,8.28,18.206,18.206,0,0,1-1.762,8.317,12.413,12.413,0,0,1-5.089,5.346,16.2,16.2,0,0,1-8.044,1.868m-5.353-4.083h5.1a11.728,11.728,0,0,0,5.883-1.338,8.338,8.338,0,0,0,3.507-3.886,14.914,14.914,0,0,0,1.165-6.222,14.872,14.872,0,0,0-1.156-6.185,8.274,8.274,0,0,0-3.441-3.856,11.213,11.213,0,0,0-5.67-1.315h-5.384Z" transform="translate(-157.561 -16.597)" fill="#fff"/>
    <rect id="Rechteck_3" data-name="Rechteck 3" width="4.673" height="30.97" transform="translate(368.388 35.568)" fill="#fff"/>
    <path id="Pfad_8" data-name="Pfad 8" d="M558.733,52.165l8.62,25.224h.348l8.62-25.224h5.05l-11.145,30.97h-5.4l-11.145-30.97Z" transform="translate(-176.161 -16.597)" fill="#fff"/>
    <path id="Pfad_9" data-name="Pfad 9" d="M600.834,83.135V52.165h19.417v4.022H605.507v9.436h13.73v4.008h-13.73v9.482h14.925v4.022Z" transform="translate(-191.163 -16.597)" fill="#fff"/>
    <path id="Pfad_10" data-name="Pfad 10" d="M638.493,83.134V52.164h11.04a12.878,12.878,0,0,1,5.98,1.24,8.255,8.255,0,0,1,3.561,3.425,10.455,10.455,0,0,1,1.18,5.044,10.2,10.2,0,0,1-1.187,5A8.077,8.077,0,0,1,655.5,70.22a13.29,13.29,0,0,1-5.981,1.195h-8.363V67.392h7.939a8.987,8.987,0,0,0,3.7-.65,4.3,4.3,0,0,0,2.094-1.89,6.216,6.216,0,0,0,.666-2.979,6.46,6.46,0,0,0-.674-3.04,4.472,4.472,0,0,0-2.1-1.973,8.672,8.672,0,0,0-3.743-.688h-5.867V83.134Zm15.288-13.973,7.652,13.973H656.11l-7.5-13.973Z" transform="translate(-203.145 -16.597)" fill="#fff"/>
    <path id="Pfad_11" data-name="Pfad 11" d="M695.088,60.1a4.444,4.444,0,0,0-2-3.335,7.714,7.714,0,0,0-4.416-1.186,8.31,8.31,0,0,0-3.3.6,5.093,5.093,0,0,0-2.155,1.633,3.86,3.86,0,0,0-.764,2.351,3.415,3.415,0,0,0,.522,1.906,4.416,4.416,0,0,0,1.377,1.338,9.494,9.494,0,0,0,1.837.892,19.188,19.188,0,0,0,1.89.582l3.025.787a23,23,0,0,1,3.04.983,12.165,12.165,0,0,1,2.888,1.634,7.9,7.9,0,0,1,2.155,2.51,7.325,7.325,0,0,1,.824,3.584,8.267,8.267,0,0,1-1.353,4.673,9.135,9.135,0,0,1-3.917,3.221,14.741,14.741,0,0,1-6.192,1.179,15.027,15.027,0,0,1-6.019-1.1,9.235,9.235,0,0,1-3.977-3.138,9.03,9.03,0,0,1-1.588-4.832h4.688a4.725,4.725,0,0,0,1.1,2.79,5.734,5.734,0,0,0,2.465,1.649,9.767,9.767,0,0,0,3.3.537,9.339,9.339,0,0,0,3.531-.628,5.82,5.82,0,0,0,2.442-1.754,4.125,4.125,0,0,0,.892-2.639,3.269,3.269,0,0,0-.779-2.253,5.91,5.91,0,0,0-2.1-1.452,20.872,20.872,0,0,0-2.987-1.013l-3.659-1a14.17,14.17,0,0,1-5.89-2.979,6.683,6.683,0,0,1-2.17-5.2,7.729,7.729,0,0,1,1.452-4.673,9.587,9.587,0,0,1,3.932-3.108,13.536,13.536,0,0,1,5.6-1.111,13.232,13.232,0,0,1,5.558,1.1,9.386,9.386,0,0,1,3.8,3.032,7.692,7.692,0,0,1,1.452,4.423Z" transform="translate(-215.387 -16.399)" fill="#fff"/>
    <rect id="Rechteck_4" data-name="Rechteck 4" width="4.673" height="30.97" transform="translate(490.211 35.568)" fill="#fff"/>
    <path id="Pfad_12" data-name="Pfad 12" d="M733.549,56.187V52.165h23.969v4.022h-9.664V83.135H743.2V56.187Z" transform="translate(-233.388 -16.597)" fill="#fff"/>
    <path id="Pfad_13" data-name="Pfad 13" d="M772.938,52.165h5.307l8.09,14.079h.333l8.09-14.079h5.308L788.831,70.976V83.134h-4.658V70.976Z" transform="translate(-245.92 -16.597)" fill="#fff"/>
    <rect id="Rechteck_5" data-name="Rechteck 5" width="4.673" height="30.97" transform="translate(569.842 35.568)" fill="#fff"/>
    <path id="Pfad_14" data-name="Pfad 14" d="M877.576,52.165v30.97h-4.295L857.539,60.421h-.287V83.134h-4.673V52.165H856.9l15.757,22.743h.287V52.165Z" transform="translate(-271.259 -16.597)" fill="#fff"/>
  </g>
</svg>
